<?xml version="1.0" encoding="iso-8859-1"?>
<!-- Uploaded to: SVG Repo, www.svgrepo.com, Generator: SVG Repo Mixer Tools -->
<svg height="800px" width="800px" version="1.1" id="Layer_1" xmlns="http://www.w3.org/2000/svg" xmlns:xlink="http://www.w3.org/1999/xlink" 
	 viewBox="0 0 512 512" xml:space="preserve">
<path style="fill:#FEA921;" d="M375.222,337.741L174.233,136.752c-4.658-4.658-11.315-5.553-14.868-1.999l-23.969,23.969
	l-7.926,7.926c-2.626,2.626-2.896,7.079-0.685,11.252l35.183,66.386c14.157,26.713,9.707,58.92-11.001,79.628l0,0
	c-32.801,32.801-67.619,54.192-110.482,72.49c-6.791,2.898-13.074,7.246-18.393,13.052c-19.313,21.079-18.505,54.631,1.817,76.155
	c22.136,23.446,58.471,24.488,80.332,2.627c5.36-5.36,9.34-11.589,11.952-18.264c15.02-38.399,32.313-69.409,61.311-98.406
	l10.009-10.009c20.548-20.548,52.439-25.105,79.064-11.296l67.56,35.038c4.145,2.15,8.54,1.855,11.14-0.744l31.947-31.947
	C380.775,349.056,379.88,342.399,375.222,337.741z M62.642,467.729c-11.273,0-20.412-9.139-20.412-20.412
	s9.139-20.412,20.412-20.412s20.412,9.139,20.412,20.412S73.915,467.729,62.642,467.729z"/>
<path style="fill:#FECE00;" d="M373.061,335.582L176.392,138.913L301.614,13.692c7.514-7.514,19.694-7.514,27.208,0l169.461,169.461
	c7.514,7.514,7.514,19.694,0,27.208L373.061,335.582z"/>
<path style="fill:#E5A900;" d="M498.282,183.153l-21.026-21.026c7.514,7.514,7.514,19.694,0,27.208L352.035,314.555l21.026,21.026
	l125.221-125.221C505.796,202.847,505.796,190.666,498.282,183.153z"/>
<path style="fill:#C7C5CB;" d="M375.222,337.741L174.233,136.752c-4.658-4.658-11.315-5.553-14.868-1.999l-17.614,17.614
	l217.857,217.857l17.614-17.614C380.775,349.056,379.879,342.399,375.222,337.741z"/>
<g>
	<path style="fill:#E5A900;" d="M401.319,86.19l-95.733,95.734c-3.147,3.147-3.147,8.249,0,11.394
		c1.574,1.573,3.637,2.36,5.698,2.36s4.124-0.786,5.698-2.36l95.733-95.733L401.319,86.19z"/>
	<path style="fill:#E5A900;" d="M369.049,53.919l-95.733,95.734c-3.147,3.147-3.147,8.249,0,11.394
		c1.574,1.573,3.637,2.36,5.698,2.36c2.062,0,4.124-0.786,5.698-2.36l95.733-95.733L369.049,53.919z"/>
	<path style="fill:#E5A900;" d="M465.86,150.731l-95.733,95.734c-3.147,3.147-3.147,8.249,0,11.394
		c1.574,1.573,3.637,2.36,5.698,2.36s4.124-0.786,5.698-2.36l95.733-95.733L465.86,150.731z"/>
	<path style="fill:#E5A900;" d="M433.59,118.46l-95.733,95.734c-3.147,3.147-3.147,8.249,0,11.394
		c1.574,1.573,3.637,2.36,5.698,2.36c2.062,0,4.124-0.786,5.698-2.36l95.733-95.733L433.59,118.46z"/>
	<path style="fill:#E5A900;" d="M336.778,21.647l-95.733,95.734c-3.147,3.147-3.147,8.249,0,11.394
		c1.574,1.573,3.637,2.36,5.698,2.36s4.124-0.786,5.698-2.36l95.733-95.733L336.778,21.647z"/>
</g>
<path style="fill:#E58200;" d="M375.222,337.741L174.233,136.752l0,0l179.962,179.962c4.658,4.658,5.553,11.315,1.999,14.868
	l-25.106,25.106c-2.6,2.6-6.995,2.893-11.14,0.744c0,0-31.836-20.719-63.932-34.962c-27.414-12.167-68.986-2.485-89.534,18.062
	l-10.009,10.009c-28.997,28.997-46.291,60.007-61.311,98.406c-2.612,6.676-6.592,12.905-11.952,18.264
	c-17.946,17.946-45.641,20.445-67.233,7.798c2.189,3.755,4.828,7.319,7.927,10.601c22.136,23.446,58.471,24.488,80.332,2.627
	c5.36-5.36,9.34-11.589,11.952-18.264c15.02-38.399,32.313-69.409,61.311-98.406l10.009-10.009
	c20.548-20.548,52.439-25.105,79.064-11.296l67.56,35.038c4.145,2.15,8.54,1.855,11.14-0.743l31.947-31.947
	C380.775,349.056,379.879,342.399,375.222,337.741z"/>
<path style="fill:#AEADB3;" d="M356.195,331.583l-17.614,17.614l21.026,21.026l17.614-17.614c3.554-3.554,2.658-10.21-1.999-14.868
	l-21.026-21.026C358.854,321.373,359.749,328.029,356.195,331.583z"/>
<g>
	<path style="fill:#1A1A1A;" d="M384.073,335.965L503.98,216.058c10.641-10.643,10.641-27.959,0-38.602l-31.951-31.951
		c-3.148-3.147-8.249-3.147-11.395,0c-3.147,3.147-3.147,8.249,0,11.394l31.951,31.951c4.361,4.36,4.361,11.453,0,15.813
		L373.062,324.187L187.788,138.913L307.31,19.39c2.113-2.112,4.92-3.276,7.907-3.276c2.987,0,5.795,1.163,7.906,3.275
		l116.163,116.162c3.148,3.147,8.249,3.147,11.395,0c3.147-3.147,3.147-8.249,0-11.394L334.519,7.995
		C329.364,2.839,322.509,0,315.217,0c-7.29,0-14.145,2.839-19.302,7.995L176.006,127.907c-0.289-0.185-0.58-0.36-0.876-0.531
		c-0.212-0.122-0.422-0.243-0.637-0.358c-0.385-0.206-0.775-0.396-1.168-0.579c-0.201-0.093-0.399-0.191-0.602-0.277
		c-0.469-0.201-0.945-0.377-1.425-0.543c-0.129-0.045-0.256-0.099-0.386-0.141c-0.61-0.197-1.226-0.363-1.846-0.501
		c-0.157-0.034-0.316-0.055-0.473-0.085c-0.378-0.074-0.755-0.154-1.136-0.204c-0.077-0.011-0.154-0.01-0.231-0.018
		c-0.324-0.04-0.649-0.056-0.973-0.078c-0.335-0.023-0.669-0.05-1.001-0.055c-0.088-0.001-0.177-0.015-0.265-0.015
		c-0.38,0-0.755,0.028-1.13,0.053c-0.117,0.008-0.235,0.006-0.351,0.016c-0.611,0.052-1.215,0.133-1.807,0.249
		c-0.014,0.002-0.026,0.006-0.04,0.01c-0.56,0.111-1.108,0.254-1.646,0.419c-0.144,0.044-0.283,0.098-0.424,0.146
		c-0.404,0.136-0.801,0.286-1.19,0.454c-0.171,0.074-0.337,0.153-0.506,0.232c-0.352,0.168-0.697,0.348-1.036,0.543
		c-0.169,0.097-0.337,0.191-0.502,0.294c-0.339,0.212-0.667,0.442-0.988,0.679c-0.14,0.103-0.284,0.199-0.42,0.307
		c-0.446,0.355-0.877,0.728-1.282,1.133l-17.614,17.614l-14.281,14.281c-5.117,5.117-5.964,13.445-2.107,20.722l35.183,66.386
		c12.551,23.682,8.702,51.876-9.58,70.157c-15.444,15.444-31.641,28.596-49.514,40.205c-3.732,2.424-4.791,7.414-2.368,11.146
		c2.424,3.732,7.415,4.791,11.146,2.368c18.828-12.23,35.881-26.075,52.13-42.325c23.317-23.317,28.309-59.123,12.423-89.098
		l-35.183-66.386c-0.515-0.971-0.568-1.682-0.547-1.971l8.394-8.394L348.21,370.226l-8.444,8.444
		c-0.276,0.02-0.973-0.028-1.923-0.521l-67.561-35.038c-29.825-15.467-65.378-10.343-88.472,12.751l-10.009,10.009
		c-27.106,27.105-45.983,57.362-63.117,101.168c-2.283,5.838-5.697,11.054-10.145,15.502c-8.785,8.785-20.59,13.518-33.288,13.34
		c-13.447-0.193-26.051-5.805-35.488-15.801c-17.489-18.523-18.25-47.155-1.734-65.181c4.41-4.814,9.665-8.544,15.616-11.084
		c12.341-5.268,23.457-10.538,33.983-16.109c3.933-2.082,5.434-6.958,3.353-10.89c-2.081-3.933-6.958-5.434-10.89-3.353
		c-10.128,5.36-20.847,10.44-32.772,15.531c-8.077,3.449-15.199,8.502-21.17,15.019c-22.193,24.221-21.359,62.494,1.899,87.128
		c12.452,13.189,29.135,20.595,46.974,20.851c0.316,0.004,0.628,0.006,0.944,0.006c16.715,0,32.299-6.394,43.969-18.065
		c6.031-6.031,10.659-13.106,13.759-21.026c16.274-41.605,34.07-70.208,59.504-95.643l10.009-10.009
		c18.105-18.103,46.097-22.06,69.657-9.841l67.561,35.038c7.339,3.805,15.404,2.945,20.547-2.199l31.946-31.947
		c5.651-5.651,5.984-14.561,1.4-21.961c-0.017-0.028-0.037-0.055-0.054-0.083C384.203,336.163,384.138,336.064,384.073,335.965z
		 M359.607,358.829L153.145,152.368l11.728-11.728c0.023-0.002,0.052-0.002,0.081-0.003c0.019,0,0.041,0,0.061,0
		c0.069,0.001,0.144,0.008,0.22,0.015c0.057,0.006,0.114,0.013,0.177,0.024c0.034,0.005,0.071,0.014,0.107,0.02
		c0.105,0.021,0.216,0.047,0.336,0.083c0.01,0.003,0.02,0.006,0.03,0.01c0.135,0.041,0.278,0.09,0.428,0.15
		c0.013,0.005,0.027,0.011,0.04,0.016c0.14,0.057,0.286,0.127,0.435,0.203c0.031,0.016,0.063,0.032,0.095,0.049
		c0.132,0.071,0.268,0.153,0.405,0.24c0.048,0.031,0.097,0.06,0.146,0.093c0.13,0.087,0.261,0.187,0.394,0.29
		c0.053,0.042,0.105,0.078,0.158,0.121c0.182,0.15,0.365,0.314,0.549,0.497l2.16,2.16l196.668,196.668
		c0.002,0.002,0.003,0.003,0.005,0.005l2.155,2.155c0.128,0.128,0.235,0.256,0.347,0.382c0.057,0.066,0.125,0.131,0.177,0.196
		c0.124,0.151,0.229,0.301,0.332,0.45c0.027,0.039,0.061,0.079,0.087,0.118c0.072,0.11,0.129,0.214,0.19,0.32
		c0.043,0.075,0.096,0.153,0.133,0.225c0.041,0.077,0.069,0.148,0.104,0.222c0.045,0.097,0.097,0.196,0.134,0.288
		c0.053,0.13,0.092,0.25,0.13,0.37c0.01,0.03,0.025,0.064,0.033,0.095c0.023,0.075,0.034,0.14,0.052,0.211
		c0.081,0.335,0.109,0.611,0.095,0.783L359.607,358.829z"/>
	<path style="fill:#1A1A1A;" d="M34.173,447.317c0,15.698,12.771,28.469,28.469,28.469s28.469-12.771,28.469-28.469
		s-12.771-28.469-28.469-28.469S34.173,431.619,34.173,447.317z M74.997,447.317c0,6.812-5.542,12.355-12.355,12.355
		s-12.355-5.542-12.355-12.355s5.542-12.355,12.355-12.355C69.454,434.962,74.997,440.505,74.997,447.317z"/>
</g>
</svg>