<?xml version="1.0" encoding="iso-8859-1"?>
<!-- Uploaded to: SVG Repo, www.svgrepo.com, Generator: SVG Repo Mixer Tools -->
<svg version="1.1" id="Layer_1" xmlns="http://www.w3.org/2000/svg" xmlns:xlink="http://www.w3.org/1999/xlink" 
	 viewBox="0 0 512 512" xml:space="preserve">
<path style="fill:#FB7B76;" d="M455.502,161.644h-39.033H198.161h-39.046l148.2-137.671L455.502,161.644z M330.181,105.183
	c0-12.637-10.242-22.866-22.866-22.866c-12.637,0-22.866,10.229-22.866,22.866s10.229,22.866,22.866,22.866
	C319.939,128.049,330.181,117.82,330.181,105.183z"/>
<polygon style="fill:#97C2F7;" points="416.469,316.417 416.469,384.218 416.394,384.218 365.484,384.218 307.315,384.218 
	307.315,380.475 307.315,316.417 "/>
<polygon style="fill:#FB7B76;" points="416.469,272.756 416.469,316.417 307.315,316.417 198.161,316.417 198.161,272.931 
	198.161,272.756 "/>
<rect x="365.484" y="384.221" style="fill:#F0C419;" width="50.909" height="103.802"/>
<path style="fill:#7DCEF5;" d="M307.315,82.317c12.624,0,22.866,10.229,22.866,22.866s-10.242,22.866-22.866,22.866
	c-12.637,0-22.866-10.229-22.866-22.866S294.678,82.317,307.315,82.317z"/>
<polygon style="fill:#94C783;" points="307.315,380.475 307.315,384.218 249.07,384.218 198.161,384.218 198.161,316.417 
	307.315,316.417 "/>
<g>
	<rect x="198.161" y="384.221" style="fill:#F0C419;" width="50.909" height="103.802"/>
	<polygon style="fill:#F0C419;" points="198.161,272.762 198.161,384.211 168.933,384.224 79.414,488.026 12.475,488.026 
		12.475,438.539 59.043,438.539 	"/>
</g>
<path d="M428.943,225.58c32.972,5.942,58.086,34.836,58.095,69.482l0.013,192.959c0,6.89,5.586,12.475,12.475,12.475
	c6.89,0,12.475-5.586,12.475-12.475l-0.012-192.963c-0.014-48.422-36.262-88.543-83.044-94.714v-26.226h26.559
	c5.13,0,9.735-3.14,11.611-7.914c1.875-4.774,0.637-10.209-3.12-13.7L315.806,14.834c-4.785-4.447-12.194-4.447-16.981,0
	l-148.2,137.671c-3.757,3.49-4.996,8.927-3.12,13.701c1.876,4.774,6.482,7.914,11.611,7.914h26.571v94.103L53.226,426.065H12.475
	C5.585,426.065,0,431.65,0,438.54v49.487c0,6.89,5.585,12.475,12.475,12.475h66.939c3.629,0,7.077-1.581,9.447-4.327l85.79-99.477
	l11.036-0.005v91.329c0,6.89,5.585,12.475,12.475,12.475h50.909c6.89,0,12.475-5.585,12.475-12.475v-91.327h91.465v91.327
	c0,6.89,5.585,12.475,12.475,12.475h50.909c6.89,0,12.475-5.585,12.475-12.475V385.56c0.047-0.44,0.075-0.887,0.075-1.34v-55.325
	h9.743c6.89,0,12.475-5.585,12.475-12.475s-5.585-12.475-12.475-12.475h-9.743V225.58H428.943z M312.903,174.118
	c6.89,0,12.475-5.585,12.475-12.475s-5.585-12.475-12.475-12.475H190.872L307.314,41.001l116.432,108.168h-29.132
	c-6.89,0-12.475,5.585-12.475,12.475s5.585,12.475,12.475,12.475h9.381v37.109c-0.014,0.245-0.037,0.487-0.037,0.735
	c0,0.249,0.022,0.492,0.037,0.737v47.582H210.636v-86.163H312.903z M249.07,371.744h-38.435v-42.851h84.204v42.851H249.07z
	 M168.928,371.75c-3.626,0.001-7.073,1.582-9.441,4.327l-85.787,99.475h-48.75v-24.538h34.093c3.688,0,7.185-1.632,9.556-4.456
	l117.086-139.525v64.709L168.928,371.75z M236.596,475.546h-25.96v-78.853h25.96V475.546z M403.919,475.546h-25.96v-78.853h25.96
	V475.546z M403.994,371.744h-38.509h-45.695v-42.851h84.204V371.744z M210.636,303.944v-18.712h193.358v18.712H210.636z"/>
<path d="M336.605,161.644c0,6.89,5.585,12.475,12.475,12.475h9.668c6.89,0,12.475-5.585,12.475-12.475s-5.585-12.475-12.475-12.475
	h-9.668C342.19,149.169,336.605,154.754,336.605,161.644z"/>
<path d="M342.656,105.183c0-19.487-15.854-35.341-35.341-35.341s-35.341,15.854-35.341,35.341s15.853,35.341,35.341,35.341
	S342.656,124.671,342.656,105.183z M307.315,115.576c-5.73,0-10.391-4.662-10.391-10.391c0-5.73,4.662-10.391,10.391-10.391
	s10.391,4.662,10.391,10.391C317.706,110.914,313.044,115.576,307.315,115.576z"/>
</svg>